# xmcd
#
# Track frame offsets: 
#        150
#        7550
#        19685
#        43782
#        71984
#        113633
#        127294
#        153827
#
# Disc length: 2313 seconds
#
# Revision: 1
# Processed by: cddbd v1.5.2PL0 Copyright (c) Steve Scherf et al.
# Submitted via: ExactAudioCopyFreeDBPlugin 1.0
#
DISCID=5f090708
DTITLE=Cuby and the Blizzards - C and B Live In Het Oude Luxor [2CD] [CD1]
DYEAR=2005
DGENRE=Blues
TTITLE0=Intro-faker (Live)
TTITLE1=Checkin' upon my baby (Live)
TTITLE2=Five long years (Live)
TTITLE3=Help me (Live)
TTITLE4=Hobo blues (Live)
TTITLE5=Another day, another road (Live)
TTITLE6=Somebody will know someday (Live)
TTITLE7=Appleknockers flophouse (Live)
EXTD=
EXTT0=
EXTT1=
EXTT2=
EXTT3=
EXTT4=
EXTT5=
EXTT6=
EXTT7=
PLAYORDER=
